<?xml version="1.0" encoding="utf-8"?><svg viewBox="0 0 267.5 267.5" xmlns="http://www.w3.org/2000/svg" xmlns:xlink="http://www.w3.org/1999/xlink"><style>:root>svg{display:none}:root>svg:target{display:block}</style><svg viewBox="0 0 41.756 41.756" id="cross" xmlns="http://www.w3.org/2000/svg"><path d="M27.948 20.878 40.291 8.536a5 5 0 1 0-7.07-7.071L20.878 13.809 8.535 1.465a5 5 0 0 0-7.07 7.071l12.342 12.342L1.465 33.22a5 5 0 1 0 7.07 7.071l12.343-12.342 12.343 12.343c.976.977 2.256 1.464 3.535 1.464s2.56-.487 3.535-1.464a5 5 0 0 0 0-7.071L27.948 20.878z"/></svg><svg viewBox="0 0 267.5 267.5" id="crown" xmlns="http://www.w3.org/2000/svg"><path d="M256.975 100.34a7.48 7.48 0 0 1-.198 2.229l-16.5 66a7.503 7.503 0 0 1-7.238 5.681l-99 .5H35a7.5 7.5 0 0 1-7.277-5.688l-16.5-66.25a7.488 7.488 0 0 1-.197-2.289C4.643 98.512 0 92.539 0 85.5c0-8.685 7.065-15.75 15.75-15.75S31.5 76.815 31.5 85.5c0 4.891-2.241 9.267-5.75 12.158l20.658 20.814c5.221 5.261 12.466 8.277 19.878 8.277 8.764 0 17.12-4.162 22.382-11.135l33.95-44.984A15.694 15.694 0 0 1 118 59.5c0-8.685 7.065-15.75 15.75-15.75s15.75 7.065 15.75 15.75c0 4.212-1.672 8.035-4.375 10.864.009.012.02.022.029.035l33.704 45.108c5.26 7.04 13.646 11.243 22.435 11.243 7.48 0 14.514-2.913 19.803-8.203l20.788-20.788C238.301 94.869 236 90.451 236 85.5c0-8.685 7.065-15.75 15.75-15.75s15.75 7.065 15.75 15.75c0 6.851-4.405 12.678-10.525 14.84zm-18.308 97.91a7.5 7.5 0 0 0-7.5-7.5h-194a7.5 7.5 0 0 0-7.5 7.5v18a7.5 7.5 0 0 0 7.5 7.5h194a7.5 7.5 0 0 0 7.5-7.5v-18z"/></svg><svg viewBox="0 0 45.74 45.74" id="moon" xmlns="http://www.w3.org/2000/svg"><path d="M12.2 15.267c0-3.322.896-6.43 2.448-9.113.376-.649-.191-1.451-.918-1.265C5.35 7.041-.711 14.961.067 24.179.803 32.88 7.835 39.982 16.53 40.796c6.033.565 11.517-1.811 15.221-5.848.5-.546.073-1.432-.666-1.401-.196.009-.395.013-.594.013-10.102 0-18.291-8.189-18.291-18.293zM23.144 5.6l.917 2.633 2.788.061a.373.373 0 0 1 .218.669l-2.221 1.687.805 2.669c.104.338-.279.614-.568.414l-2.292-1.59-2.29 1.59a.373.373 0 0 1-.569-.414l.805-2.669-2.221-1.687a.373.373 0 0 1 .218-.669l2.788-.061.918-2.633a.373.373 0 0 1 .704 0zM40.26 26.44l.881 2.53 2.679.057a.41.41 0 0 1 .24.737l-2.134 1.621.772 2.564c.111.371-.309.677-.627.454l-2.201-1.527-2.2 1.527a.41.41 0 0 1-.626-.454l.772-2.564-2.133-1.621a.41.41 0 0 1 .238-.737l2.679-.057.884-2.53a.411.411 0 0 1 .776 0zm-.334-18.342 1.325 3.799 4.021.086c.452.01.639.584.278.858l-3.204 2.434 1.162 3.853a.476.476 0 0 1-.729.529l-3.306-2.294-3.305 2.294a.477.477 0 0 1-.729-.529l1.161-3.853-3.205-2.434c-.358-.273-.172-.849.279-.858l4.022-.086 1.324-3.799a.48.48 0 0 1 .906 0z"/></svg><svg viewBox="0 0 50 50" id="sun" xmlns="http://www.w3.org/2000/svg"><path d="M24.984 3.986A1 1 0 0 0 24 5v6a1 1 0 1 0 2 0V5a1 1 0 0 0-1.016-1.014zM10.89 9.891a1 1 0 0 0-.696 1.716l4.2 4.2a1 1 0 1 0 1.414-1.414l-4.2-4.2a1 1 0 0 0-.718-.302zm28.191 0a1 1 0 0 0-.687.302l-4.2 4.2a1 1 0 1 0 1.414 1.414l4.2-4.2a1 1 0 0 0-.727-1.716zM25 15a1 1 0 0 0-.408.082C19.26 15.308 15 19.612 15 25c0 5.533 4.467 10 10 10s10-4.467 10-10c0-5.388-4.259-9.691-9.59-9.918A1 1 0 0 0 25 15zM5 24a1 1 0 1 0 0 2h6a1 1 0 1 0 0-2H5zm34 0a1 1 0 1 0 0 2h6a1 1 0 1 0 0-2h-6zm-23.92 9.89a1 1 0 0 0-.687.303l-4.2 4.2a1 1 0 1 0 1.414 1.414l4.2-4.2a1 1 0 0 0-.727-1.716zm19.809 0a1 1 0 0 0-.696 1.717l4.2 4.2a1 1 0 1 0 1.414-1.414l-4.2-4.2a1 1 0 0 0-.718-.302zm-9.905 4.096A1 1 0 0 0 24 39v6a1 1 0 1 0 2 0v-6a1 1 0 0 0-1.016-1.014z"/></svg><svg viewBox="0 0 45.701 45.7" id="tick" xmlns="http://www.w3.org/2000/svg"><path d="M20.687 38.332a5.308 5.308 0 0 1-7.505 0L1.554 26.704A5.306 5.306 0 1 1 9.059 19.2l6.928 6.927a1.344 1.344 0 0 0 1.896 0L36.642 7.368a5.308 5.308 0 0 1 7.505 7.504l-23.46 23.46z"/></svg></svg>